<?xml version="1.0" encoding="iso-8859-1"?>
<!-- Generator: Adobe Illustrator 19.0.0, SVG Export Plug-In . SVG Version: 6.00 Build 0)  -->
<svg xmlns="http://www.w3.org/2000/svg" xmlns:xlink="http://www.w3.org/1999/xlink" version="1.1" id="Capa_1" x="0px" y="0px" viewBox="0 0 511.999 511.999" style="enable-background:new 0 0 511.999 511.999;" xml:space="preserve">
<path style="fill:#F24F43;" d="M361.607,30.761l-57.433,245.453l-18.884-3.757l39.274-249.065c0.857-5.434,6.015-9.064,11.367-7.999  l18.172,3.615C359.455,20.072,362.86,25.406,361.607,30.761z M280.425,9.333l-18.437-1.788c-5.43-0.527-10.208,3.599-10.529,9.091  l-14.707,251.759l19.159,1.858l33.13-249.972C289.765,14.828,285.855,9.859,280.425,9.333z"/>
<path style="fill:#ED322E;" d="M361.607,30.761l-21.284,90.963l-30.618-4.099l14.859-94.233c0.857-5.434,6.015-9.064,11.367-7.999  l18.172,3.615C359.455,20.072,362.86,25.406,361.607,30.761z M280.425,9.333l-18.437-1.788c-5.43-0.527-10.208,3.599-10.529,9.091  l-5.461,93.477l30.595,4.096l12.449-93.928C289.765,14.828,285.855,9.859,280.425,9.333z"/>
<path style="fill:#BC8544;" d="M473.5,123.206v30.485c0,1.809-0.695,3.547-1.939,4.849l-61.578,64.454h-0.001l-4.414,36.887h-0.001  L378.342,487.41c-1.167,9.752-9.371,17.088-19.109,17.088H152.765c-9.738,0-17.942-7.336-19.109-17.088l-31.639-264.416l0,0  L40.439,158.54c-1.244-1.302-1.939-3.041-1.939-4.849v-30.485c0-3.86,3.102-6.989,6.929-6.989l0,0c1.733,0,3.404,0.655,4.682,1.837  l113.498,104.939h184.782l113.498-104.939c1.278-1.181,2.948-1.837,4.682-1.837C470.398,116.218,473.5,119.346,473.5,123.206z"/>
<path style="fill:#AA7439;" d="M409.982,222.994l-31.639,264.417c-1.167,9.752-9.371,17.088-19.109,17.088h-25.818  c9.738,0,17.942-7.336,19.109-17.088l24.149-191.481l-14.803,13.779c-1.787,1.664-4.134,2.588-6.571,2.588h-20.657H175.424h-20.24  c-2.684,0-5.247-1.121-7.076-3.094l-41.066-44.453l-5.024-41.755h282.146L409.982,222.994L409.982,222.994z"/>
<path style="fill:#D59A4C;" d="M409.982,222.994l-60.262,63.025c-1.823,1.906-4.341,2.984-6.973,2.984H167.409  c-2.684,0-5.247-1.121-7.076-3.094l-58.314-62.915H409.982z"/>
<path style="fill:#FBB03B;" d="M313.743,386.073c0,32.166-25.853,58.242-57.743,58.242s-57.743-26.076-57.743-58.242  S224.11,327.831,256,327.831S313.743,353.906,313.743,386.073z"/>
<path style="fill:#F24F43;" d="M284.871,386.073c0,16.083-12.926,29.121-28.872,29.121s-28.872-13.038-28.872-29.121  s12.926-29.121,28.872-29.121S284.871,369.99,284.871,386.073z"/>
<path d="M301.673,120.414l15.484-98.191c0.727-4.61,3.332-8.781,7.148-11.442c3.847-2.684,8.495-3.656,13.09-2.744l18.171,3.615  c4.585,0.912,8.509,3.586,11.049,7.529c2.556,3.968,3.371,8.687,2.294,13.289l-39.99,170.908c-0.809,3.458-3.892,5.792-7.296,5.792  c-0.566,0-1.14-0.064-1.715-0.199c-4.033-0.944-6.538-4.979-5.594-9.011l39.99-170.908c0.192-0.819-0.105-1.447-0.299-1.748  c-0.225-0.35-0.645-0.797-1.365-0.94l-18.172-3.615c-0.705-0.14-1.25,0.104-1.582,0.335c-0.286,0.199-0.784,0.655-0.913,1.476  l-15.483,98.191c-0.646,4.091-4.487,6.888-8.577,6.24C303.822,128.346,301.028,124.506,301.673,120.414z M184.472,139.377  c-2.221,3.496-1.188,8.131,2.309,10.352c1.247,0.792,2.639,1.17,4.014,1.17c2.481,0,4.909-1.23,6.338-3.479  c0.668-1.052,16.166-25.957-1.004-43.276c-4.463-4.501-5.782-9.303-4.15-15.11c1.382-4.92,4.417-8.583,4.516-8.701  c2.685-3.129,2.341-7.843-0.778-10.549c-3.129-2.713-7.865-2.377-10.58,0.751c-7.013,8.084-15.968,27.721,0.339,44.169  C194.214,123.517,184.556,139.242,184.472,139.377z M272.566,87.514l-15.04,113.477c-0.544,4.106,2.343,7.876,6.45,8.42  c0.334,0.044,0.667,0.066,0.995,0.066c3.704,0,6.926-2.744,7.426-6.516l15.04-113.477c0.544-4.106-2.343-7.876-6.45-8.42  C276.882,80.519,273.111,83.408,272.566,87.514z M240.168,209.921c0.149,0.009,0.297,0.013,0.444,0.013  c3.942,0,7.248-3.077,7.48-7.062l10.854-185.797c0.049-0.834,0.503-1.342,0.77-1.57c0.309-0.264,0.826-0.563,1.547-0.494  l18.437,1.788c0.726,0.071,1.184,0.47,1.44,0.793c0.222,0.279,0.577,0.872,0.466,1.706l-5.938,44.801  c-0.544,4.106,2.343,7.876,6.45,8.42c4.103,0.544,7.876-2.344,8.42-6.45l5.938-44.801c0.621-4.688-0.653-9.307-3.59-13.004  c-2.916-3.672-7.085-5.943-11.739-6.395L262.71,0.081c-4.652-0.45-9.186,0.979-12.748,4.027c-3.536,3.026-5.72,7.433-5.992,12.091  l-10.854,185.797C232.877,206.131,236.034,209.679,240.168,209.921z M295.308,208.927c0.396,0.062,0.789,0.092,1.178,0.092  c3.627,0,6.816-2.637,7.399-6.333l9.206-58.378c0.645-4.092-2.149-7.932-6.241-8.577c-4.089-0.649-7.931,2.149-8.577,6.24  l-9.206,58.379C288.423,204.442,291.217,208.282,295.308,208.927z M150.777,139.395c-2.207,3.494-1.17,8.117,2.32,10.334  c1.247,0.792,2.639,1.17,4.014,1.17c2.481,0,4.909-1.23,6.338-3.479c0.668-1.052,16.166-25.957-1.004-43.276  c-4.463-4.501-5.782-9.303-4.15-15.11c1.398-4.977,4.487-8.667,4.489-8.67c2.714-3.129,2.378-7.866-0.751-10.58  c-3.128-2.713-7.865-2.377-10.58,0.751c-7.013,8.084-15.968,27.721,0.339,44.169C160.471,123.457,151.003,139.027,150.777,139.395z   M321.243,386.073c0,36.25-29.268,65.742-65.244,65.742c-35.975,0-65.243-29.492-65.243-65.742s29.268-65.742,65.243-65.742  C291.975,320.331,321.243,349.823,321.243,386.073z M306.243,386.073c0-27.979-22.539-50.742-50.244-50.742  c-27.704,0-50.243,22.763-50.243,50.742s22.539,50.742,50.243,50.742C283.704,436.816,306.243,414.053,306.243,386.073z   M481,123.207v30.485c0,3.757-1.426,7.319-4.017,10.03L417.13,226.37l-31.341,261.932c-1.617,13.51-13.033,23.697-26.556,23.697  H152.765c-13.522,0-24.939-10.187-26.556-23.697L94.868,226.367l-59.851-62.644c-2.59-2.71-4.017-6.272-4.017-10.03v-30.485  c0-7.989,6.473-14.489,14.429-14.489c3.631,0,7.103,1.36,9.773,3.831l111.343,102.946h178.909L456.797,112.55  c2.671-2.47,6.142-3.83,9.774-3.83C474.527,108.718,481,115.218,481,123.207z M105.224,215.495h39.226L46,124.469v29.036  L105.224,215.495z M399.862,244.432l-44.722,46.771c-3.221,3.369-7.738,5.301-12.394,5.301h-26.814c-4.142,0-7.5-3.358-7.5-7.5  s3.358-7.5,7.5-7.5h26.814c0.581,0,1.146-0.243,1.552-0.667l48.135-50.342h-43.92c-0.083,0.001-0.163,0.001-0.245,0H163.731  c-0.082,0.001-0.162,0.001-0.245,0h-44.292l46.638,50.316c0.408,0.44,0.982,0.692,1.576,0.692h121.458c4.142,0,7.5,3.358,7.5,7.5  s-3.358,7.5-7.5,7.5H167.409c-4.756,0-9.34-2.003-12.577-5.496l-42.625-45.988l28.896,241.5c0.715,5.974,5.729,10.479,11.662,10.479  h206.468c5.934,0,10.947-4.505,11.662-10.479L399.862,244.432z M466,124.469l-98.45,91.026h39.225L466,153.504V124.469z   M292.371,386.073c0,20.193-16.316,36.621-36.372,36.621s-36.372-16.428-36.372-36.621s16.316-36.621,36.372-36.621  C276.055,349.452,292.371,365.881,292.371,386.073z M277.371,386.073c0-11.922-9.587-21.621-21.372-21.621  c-11.785,0-21.372,9.699-21.372,21.621s9.587,21.621,21.372,21.621C267.784,407.694,277.371,397.995,277.371,386.073z"/>
<g>
</g>
<g>
</g>
<g>
</g>
<g>
</g>
<g>
</g>
<g>
</g>
<g>
</g>
<g>
</g>
<g>
</g>
<g>
</g>
<g>
</g>
<g>
</g>
<g>
</g>
<g>
</g>
<g>
</g>
</svg>
